<svg width="160" height="153" viewBox="0 0 160 153" fill="none" xmlns="http://www.w3.org/2000/svg">
<g id="&#195;&#144;&#194;&#161;&#195;&#144;&#194;&#187;&#195;&#144;&#194;&#190;&#195;&#144;&#194;&#185;_1" clip-path="url(#clip0_135_22795)">
<path id="Vector" d="M96.3206 120.967C118.295 125.994 139.3 123.778 160 114.041C159.043 113.441 158.655 113.146 158.206 112.948C142.624 105.902 126.48 103.055 109.774 104.797H109.702C106.055 105.079 100.901 105.998 98.5569 106.461L98.3237 106.263C102.031 104.461 108.04 99.9618 111.329 97.409L111.43 97.4871L113.655 95.571C115.783 93.769 117.912 91.9369 119.969 90.0329C130.265 80.4944 137.614 68.7935 144 56.444C145.793 52.9782 147.061 49.2361 148.891 44.8693C123.09 54.5759 103.197 70.151 88.9063 93.0061C92.5597 77.3349 94.6644 61.5916 92.5836 45.7162C89.6836 23.66 84.8105 7.11784 79.9912 -0.00598145C79.6504 0.642731 79.3036 1.24336 79.0046 1.87405C78.5382 2.86514 78.0658 3.85623 77.6473 4.87735C71.2558 20.4139 67.6583 36.9662 67.0221 53.765V53.8011V54.1194C66.9903 55.2021 67.0303 56.2856 67.1417 57.363C67.2134 59.6995 67.3091 62.7689 67.4107 65.3638C67.3958 65.5497 67.3958 65.7365 67.4107 65.9224C67.4645 66.9675 67.5303 68.0127 67.608 69.0639C67.608 69.4783 67.6559 69.8147 67.6798 70.0549C67.6798 70.091 67.6798 70.121 67.6798 70.1571C67.8472 72.1332 68.0565 74.1094 68.3734 76.0615C69.2703 81.6416 70.4064 87.1858 71.5903 93.5467C68.7023 89.4743 66.4301 85.8943 63.7693 82.6267C63.6438 82.4765 63.5242 82.3204 63.4046 82.1642C59.9486 75.4188 47.9122 65.9104 47.9122 65.9104C38.0306 57.5085 26.8177 50.8289 14.7391 46.1487C13.896 45.8243 12.9931 45.6381 11.5282 45.2177C21.5196 71.4364 37.5023 91.7808 61.0308 106.113C39.9478 101.908 19.9889 104.593 0.0419922 113.867C20.9934 123.568 41.9569 126.229 63.9368 120.943C53.2996 129.016 45.3988 140.187 41.3111 152.934C59.7513 146.573 72.2659 134.578 80.1765 116.696C88.0214 134.794 100.596 146.567 119.185 153C117.732 149.57 116.704 146.789 115.413 144.14C110.904 134.944 104.429 127.37 96.3206 120.967ZM14.189 113.465C31.9894 108.299 49.6044 107.728 67.6499 113.687C56.3431 119.862 20.4912 119.621 14.189 113.465ZM52.026 141.846C56.4638 134.395 62.615 128.121 69.9639 123.55C69.1567 128.331 58.9141 138.842 52.026 141.846ZM21.8545 54.9423C23.0503 55.513 24.2462 56.0295 25.3882 56.6722C32.8084 60.7589 39.7824 65.6147 46.1962 71.1601C52.0918 76.5661 59.4822 85.4558 60.0143 86.0925C64.5101 91.9419 68.2977 98.3075 71.2973 105.055C48.9766 94.3036 32.4558 77.7314 21.8545 54.9544V54.9423ZM145.399 113.513L145.56 114.714C139.653 115.813 133.781 117.177 127.838 117.958C117.075 119.369 106.479 117.837 95.9499 115.309C95.3284 115.186 94.7436 114.921 94.2414 114.533C93.7393 114.145 93.3335 113.646 93.0559 113.074L95.3161 112.552V112.582C96.3206 112.323 97.3311 112.077 98.3356 111.849L98.533 111.807C114.247 108.263 129.882 108.455 145.399 113.513ZM80.1108 101.602C69.4437 72.3695 69.4437 43.1213 80.1108 13.8572C90.7738 43.0933 90.7738 72.3414 80.1108 101.602ZM138.708 54.7501C138.531 55.5129 138.299 56.2617 138.014 56.9906C130.45 71.6767 120.345 84.2305 107.131 94.2315C106.919 94.4016 106.72 94.5863 106.533 94.7841C104.345 96.4239 102.701 97.5111 102.635 97.5591C99.095 99.6735 95.5672 101.764 92.0215 103.878C91.0579 104.461 89.9992 104.868 88.8943 105.079C99.5494 82.6447 116.1 66.0846 138.708 54.7141V54.7501ZM90.0663 123.946C97.648 128.049 103.382 134.031 107.639 141.509C100.052 137.413 94.3056 131.448 90.0663 123.946Z" fill="white"/>
</g>
<defs>
<clipPath id="clip0_135_22795">
<rect width="160" height="153" fill="white"/>
</clipPath>
</defs>
</svg>
