<svg width="134" height="155" viewBox="0 0 134 155" fill="none" xmlns="http://www.w3.org/2000/svg">
<g id="&#195;&#144;&#194;&#161;&#195;&#144;&#194;&#187;&#195;&#144;&#194;&#190;&#195;&#144;&#194;&#185;_1" clip-path="url(#clip0_135_22785)">
<path id="Vector" d="M67.1135 0.0150757C69.991 3.86438 72.4283 8.02212 74.3801 12.411C79.597 23.8468 82.7156 35.7778 82.9003 48.382C83.091 61.2579 80.2237 73.5029 74.9615 85.2135C74.3044 86.6807 73.6262 88.1388 72.9056 89.5759C71.4099 92.5646 69.3389 95.3632 70.0595 99.0766C67.4496 98.7747 65.6329 97.5671 64.5247 95.5232C62.4204 91.6378 60.2647 87.7615 58.4692 83.7281C52.6195 70.5231 50.8211 56.6238 51.7687 42.3108C52.7588 27.4183 57.6245 13.8601 65.9811 1.5155C66.3202 1.01133 66.7017 0.546415 67.1135 0.0150757ZM67.0923 87.6769C81.0503 65.7049 79.1549 29.1844 66.847 11.0162C65.4119 13.8148 63.8919 16.3658 62.7565 19.0769C59.6379 26.5307 58.2694 34.4011 57.7395 42.4105C56.9977 53.6229 57.6033 64.7327 60.9217 75.5618C62.2539 79.894 64.0464 84.027 67.0923 87.6618V87.6769Z" fill="white"/>
<path id="Vector_2" d="M0 47.7148C5.54154 48.2782 10.9836 49.5725 16.1834 51.564C31.9884 57.4782 43.7876 68.0597 52.3229 82.433C53.6672 84.6972 53.6702 86.0195 52.223 87.1456C51.7022 87.5502 50.591 87.8219 50.1187 87.5381C49.0438 86.8981 47.9447 86.0286 47.3028 84.9871C38.8826 71.287 27.3196 61.4391 12.0293 56.1136C10.8606 55.7061 9.66464 55.0298 8.01451 55.6698C9.99467 59.1688 11.7205 62.6135 13.8097 65.8377C22.1481 78.6925 34.0352 86.9313 48.19 92.4922C58.8144 96.6644 69.1845 101.489 79.6091 106.153C83.3394 107.823 85.0591 111.823 84.169 115.895C83.2818 120.034 80.024 122.685 75.4884 122.936C74.7435 122.975 73.9926 122.936 73.1297 122.936V117.607C73.6746 117.466 74.2291 117.365 74.7889 117.305C76.4027 117.239 77.8379 116.892 78.3375 115.113C78.7039 113.812 77.4958 111.699 75.9607 110.902C75.0524 110.44 74.144 110.051 73.2145 109.643C61.7877 104.622 50.3094 99.7045 38.9402 94.5481C27.3377 89.2921 17.5278 81.7417 10.2096 71.2055C5.59642 64.5377 2.23655 57.0897 0.293694 49.2243C0.184694 48.7866 0.13625 48.3458 0 47.7148Z" fill="white"/>
<path id="Vector_3" d="M134.003 47.739C132.499 54.4579 130 60.916 126.588 66.9004C121.335 76.1294 113.723 83.0912 105.166 89.1321C100.482 92.4349 96.0831 96.2629 90.6331 98.2554C86.9604 99.5959 83.1151 100.48 79.3243 101.471C78.2041 101.773 76.9748 101.773 76.1755 100.607C75.1551 99.1219 75.7213 97.4373 77.5743 96.746C79.8845 95.8825 82.2643 95.2093 84.5684 94.3308C102.656 87.4868 115.797 75.1875 124.496 58.0458C124.989 57.0808 125.297 56.0323 125.404 54.9543C122.918 55.8449 120.387 56.6269 117.953 57.6473C104.47 63.2928 94.1937 72.6093 86.6606 85.0324C86.3579 85.5486 86.0551 86.083 85.722 86.5811C84.6865 88.0906 83.3452 88.4378 81.8132 87.6166C80.4416 86.883 79.9965 85.7056 80.8382 84.0119C81.8569 81.998 83.0164 80.0581 84.3081 78.2065C95.5108 61.904 110.704 51.6395 130.33 48.1828C131.444 47.9866 132.58 47.9081 134.003 47.739Z" fill="white"/>
<path id="Vector_4" d="M86.9785 105.075C98.6687 98.4728 121.413 102.66 130.512 117.432C117.998 124.367 94.993 118.431 86.9785 105.075ZM95.208 107.309C100.482 112.517 115.912 116.867 122.049 114.878C114.231 108.641 102.435 106.063 95.208 107.309Z" fill="white"/>
<path id="Vector_5" d="M4.5083 117.411C12.0505 104.127 34.9828 98.1377 47.866 104.891C41.6621 117.335 18.321 124.569 4.5083 117.411ZM12.653 115.074C22.6204 115.886 31.6765 113.45 39.6516 107.285C29.6872 106.461 20.6736 108.979 12.653 115.074Z" fill="white"/>
<path id="Vector_6" d="M73.063 143.193V138.061C73.7109 137.967 74.3347 137.849 74.9675 137.786C77.0476 137.575 78.2556 136.578 78.4827 134.888C78.728 133.022 77.9195 131.814 75.788 131.111C69.0482 128.886 62.2902 126.721 55.5534 124.493C51.8989 123.286 49.3465 121.012 48.6864 117.039C47.9144 112.402 51.1087 107.807 55.7563 107.013C57.2369 106.763 58.7659 106.808 60.2737 106.733C61.0912 106.69 61.503 107.065 61.4 107.913C61.4 107.961 61.4 108.013 61.4 108.064C61.3698 109.368 61.7967 111.011 61.1639 111.871C60.6613 112.55 58.8537 112.285 57.6244 112.42C55.9228 112.608 54.8086 113.559 54.5603 115.059C54.2575 116.889 54.8843 118.172 56.7736 118.842C60.3282 120.104 63.9403 121.206 67.5252 122.386C71.207 123.594 74.9433 124.668 78.5524 126.069C84.2627 128.288 86.2066 135.087 82.546 139.781C80.1752 142.812 76.8568 143.495 73.063 143.193Z" fill="white"/>
<path id="Vector_7" d="M64.2796 141.964C64.2796 138.701 64.2796 135.437 64.2796 132.171C64.2796 130.571 64.4643 130.453 66.063 130.806C69.5903 131.588 69.9597 132.041 69.9627 135.679C69.9627 140.752 69.9627 145.825 69.9627 150.897C69.9605 151.649 69.8772 152.398 69.7145 153.131C69.4117 154.46 68.461 154.973 67.156 155C65.851 155.027 64.8731 154.553 64.5279 153.234C64.3575 152.555 64.271 151.857 64.2705 151.157C64.2463 148.093 64.2705 145.028 64.2705 141.964H64.2796Z" fill="white"/>
<path id="Vector_8" d="M69.884 119.766C69.0423 119.726 68.3399 119.717 67.6465 119.654C65.5634 119.461 64.5552 118.67 64.4038 116.605C64.2282 114.226 64.3614 111.823 64.3614 109.163C65.7057 109.528 67.0864 109.631 68.131 110.277C68.5681 110.575 68.9415 110.957 69.2295 111.4C69.5174 111.843 69.7142 112.339 69.8083 112.858C70.0475 115.071 69.884 117.329 69.884 119.766Z" fill="white"/>
<path id="Vector_9" d="M61.1975 143.932C59.835 143.443 58.6118 143.027 57.3977 142.562C56.5257 142.236 56.023 141.695 56.02 140.654C56.02 139.567 56.4984 138.975 57.4582 138.637C58.6693 138.205 59.8804 137.762 61.1975 137.285V143.932Z" fill="white"/>
</g>
<defs>
<clipPath id="clip0_135_22785">
<rect width="134" height="155" fill="white"/>
</clipPath>
</defs>
</svg>
