<svg width="142" height="155" viewBox="0 0 142 155" fill="none" xmlns="http://www.w3.org/2000/svg">
<g id="&#195;&#144;&#194;&#161;&#195;&#144;&#194;&#187;&#195;&#144;&#194;&#190;&#195;&#144;&#194;&#185;_1" clip-path="url(#clip0_135_22777)">
<path id="Vector" d="M71.4065 122.006C66.0851 103.231 60.7924 84.7803 60.2654 65.4948C59.6467 42.9212 64.149 21.1539 72.2944 0C86.1851 23.4255 85.7383 97.4784 71.4065 122.006Z" fill="white"/>
<path id="Vector_2" d="M66.79 125.356C34.4319 118.354 8.54656 90.976 4.16455 57.2093C8.31171 60.8835 12.1839 64.4953 16.1936 67.8402C22.6435 73.15 29.1391 78.4143 35.8067 83.4572C43.5625 89.3235 50.0926 96.2063 54.9386 104.622C58.8681 111.431 62.7288 118.24 66.79 125.356Z" fill="white"/>
<path id="Vector_3" d="M138.638 58.1122C130.836 94.1449 102.883 118.252 75.8462 125.299C77.2095 117.065 82.1471 110.699 87.0848 104.39C94.1221 95.3034 102.576 87.3879 112.128 80.9414C121.838 74.3903 130.736 66.7277 138.638 58.1122Z" fill="white"/>
<path id="Vector_4" d="M65.3349 131.2C50.585 138.645 15.2425 133.011 0 120.819C22.5745 120.552 44.3013 123.334 65.3349 131.2Z" fill="white"/>
<path id="Vector_5" d="M79.0366 130.376C99.5605 124.311 120.606 122.04 142 121.222C130.343 130.524 104.384 139.468 79.0366 130.376Z" fill="white"/>
<path id="Vector_6" d="M108.359 154.358C94.8748 151.632 84.6844 144.892 75.7715 134.556C89.0206 137.872 99.4114 144.261 108.359 154.358Z" fill="white"/>
<path id="Vector_7" d="M62.6712 137.197C54.8981 146.652 44.914 152.388 33.0225 155C42.8691 149.003 51.215 140.564 62.6712 137.197Z" fill="white"/>
</g>
<defs>
<clipPath id="clip0_135_22777">
<rect width="142" height="155" fill="white"/>
</clipPath>
</defs>
</svg>
